PathFileType	4	(X/Y/Z)	Patient4_TMGait_0pt7_02_left_06.trc.trc
DataRate	CameraRate	NumFrames	NumMarkers	Units	OrigDataRate	OrigDataStartFrame	OrigNumFrames
88.050314465409	88.050314465409	5	33	mm	88.050314465409	124	       141
Frame#	Time	Sacral			L.Shoulder			Chest			R.Shoulder			Neck			R.ASIS			L.ASIS			R.Thigh.Superior			R.Thigh.Lateral			R.Thigh.Inferior			R.Patella			L.Thigh.Superior			L.Thigh.Lateral			L.Thigh.Inferior			L.Patella			L.Shank.Superior			L.Shank.Lateral			L.Shank.Inferior			R.Shank.Superior			R.Shank.Lateral			R.Shank.Inferior			R.Heel			R.Midfoot.Superior			R.Midfoot.Lateral			R.Toe			L.Heel			L.Midfoot.Lateral			L.Midfoot.Superior			L.Toe			L.Elbow			L.Wrist			R.Elbow			R.Wrist			
		X1	Y1	Z1	X2	Y2	Z2	X3	Y3	Z3	X4	Y4	Z4	X5	Y5	Z5	X6	Y6	Z6	X7	Y7	Z7	X8	Y8	Z8	X9	Y9	Z9	X10	Y10	Z10	X11	Y11	Z11	X12	Y12	Z12	X13	Y13	Z13	X14	Y14	Z14	X15	Y15	Z15	X16	Y16	Z16	X17	Y17	Z17	X18	Y18	Z18	X19	Y19	Z19	X20	Y20	Z20	X21	Y21	Z21	X22	Y22	Z22	X23	Y23	Z23	X24	Y24	Z24	X25	Y25	Z25	X26	Y26	Z26	X27	Y27	Z27	X28	Y28	Z28	X29	Y29	Z29	X30	Y30	Z30	X31	Y31	Z31	X32	Y32	Z32	X33	Y33	Z33	

124	7.856928571429	771.813595604822	1000.776342401343	510.137238415775	961.679526466833	1411.192911314095	308.771604983515	1071.830389944590	1339.375101797588	465.014157458898	1003.742096655254	1427.199386223534	638.690679555331	975.690816902431	1474.670762864458	462.034667156959	993.993996817478	929.718313876040	629.205841736677	982.227057280307	933.896573513330	352.840295691917	982.310666254514	714.152648898361	610.421435195294	868.210039717061	628.055993293252	668.229767042439	928.021229684795	556.955067728221	592.761475206118	904.378590476751	472.861460968135	596.670301852590	1057.919296025671	764.365377541009	393.254539252334	1021.024791115028	635.668588822941	308.205374448530	1124.287870148487	582.946056379762	375.829310399021	1152.807462614637	516.214622794092	373.190912488562	1136.897986350467	441.748943553842	358.951832938254	1072.875245431311	312.953847848677	303.126902486425	1157.924363682300	213.365850563541	360.005205164624	862.484119924964	391.680565023645	603.518356440765	773.796141563138	301.399684053388	664.175652644072	801.270592375413	200.561498068077	602.321679606358	648.358419172515	44.640340389787	569.314295651359	818.438792521553	96.184087829931	611.563905358777	727.814476763959	37.351824642032	647.566995577572	936.553507201518	41.076789081984	646.985401988968	1073.447139900348	37.716811128710	391.464383505808	1149.642923550547	43.076993184600	313.425483038189	1221.199208109283	115.947755016345	340.315113408199	1355.033192524804	83.120731964403	317.307948341258	786.059471309303	1105.842450220053	226.283001307539	708.299079180354	859.066332134498	243.715076155642	1134.267866757938	1120.610989771120	762.111873951421	1360.674027466962	1166.283671830477	661.826436805089	
125	7.868285714286	773.799806236299	998.741358975241	507.147459464353	962.478861392160	1409.756813289358	306.096754511421	1072.305868021560	1338.929280410682	462.988833505103	1002.444683785287	1426.684434355285	636.124651441260	975.245227779192	1473.507790110372	459.209628552257	995.800068918479	928.104781621281	627.475911486132	985.319703609514	932.518360362409	351.564637012702	983.889559364499	712.367443965531	608.480253742335	869.450954347395	626.538034369416	666.340763552131	928.945169635310	555.050575268106	590.912155802850	904.380125867871	470.284925223074	594.749412267160	1060.432460261159	760.606829002115	391.996471819016	1021.151070513812	632.812242056774	307.390239876900	1123.671759680874	579.003822576901	375.344613791414	1150.373727383426	511.709213854637	373.088293255671	1134.501382565840	437.599584082881	358.498710582700	1069.675748336425	309.180889794800	303.128825639173	1153.698096238872	209.277427524701	360.563634167552	860.886569386989	389.701602497835	601.973679044983	770.647595649191	301.234908732332	663.200697142746	795.843544258616	199.814208954852	601.625877604421	640.452415365774	45.565806133276	569.413266787740	810.869575815902	96.290361086252	611.481327399300	719.938614417395	37.811124166472	647.571370046894	928.701934677986	40.679547503194	647.119587006389	1066.424627062064	36.656738639416	393.075764074534	1142.149324679284	40.153556984541	314.398698443612	1215.902942280542	110.536435238690	341.230191609302	1348.796519146996	73.713514602503	317.255543829159	786.241594502513	1105.321963732511	223.938111757073	706.316087889074	859.087237565308	242.356960492660	1138.166589507425	1123.075548563090	759.212243313630	1359.686683233123	1181.273642153096	656.438630938652	
126	7.879642857143	775.679485513446	996.940017688811	504.276457465483	963.359778435276	1408.437781356482	303.334371289879	1072.891326507764	1338.576075572120	460.848653437886	1001.431998815243	1426.348894641342	633.477664198270	975.018976209748	1472.539285406587	456.223867047322	997.552655707303	926.614915813864	625.591106620366	988.085358336670	931.561880598530	350.155499661865	985.740344982662	710.784368999084	606.264798513928	871.247410420349	625.016079657444	664.274505696820	930.572936280711	553.206046852965	588.899863412147	905.204765787091	467.579335298341	592.779184901723	1063.030549145025	757.907711267988	390.460453605815	1021.864640440920	630.949090263627	306.375019982264	1123.754436329743	576.283962758870	374.629673520198	1148.797695451574	508.286200711762	372.797997835559	1132.853246362268	434.307687687533	358.031689711207	1067.100625608665	306.469207811531	302.633622603311	1149.379004722398	205.921596748110	360.979424157904	859.887533133841	387.705216365366	600.356019981073	767.961165936253	301.267578176580	662.160020984134	790.725928019872	199.245915267047	600.930438492905	632.619488081738	47.020222356558	569.568953665936	803.495390914927	96.472113774761	611.441903362054	712.136741939692	38.545117260798	647.604558271949	920.898891137540	40.226112369118	647.258231914192	1058.634266844997	36.284441908880	394.281654720334	1134.035127523654	37.957308136612	315.099298217919	1209.961537207583	105.903466436736	342.015391970139	1341.946886153379	65.111504883937	317.276351525512	787.383414353575	1104.185652521082	221.575417641723	705.567624232640	858.420587217065	240.681753009490	1141.297898069519	1125.225308581475	756.522498172514	1357.552082296910	1195.058276826189	651.510362433583	
127	7.891000000000	777.414322916361	995.462037298858	501.542587391755	964.290990229970	1407.320500395087	300.542481335356	1073.573856586265	1338.342007612043	458.616269212406	1000.787849763409	1426.236858120841	630.789627404118	975.051744818272	1471.831746586464	453.151187803372	999.197774406350	925.357026321806	623.542296761755	990.467909362886	931.083351068133	348.536389257191	987.790420151999	709.500152933117	603.817307532883	873.525235466641	623.583574624134	662.060931700361	932.871693023493	551.514352508069	586.792789215211	906.863476819144	464.827807340729	590.886529655601	1065.655562509752	756.394666588263	388.609119480636	1023.134403171641	630.084193353145	305.147477358844	1124.467791228741	574.760768861857	373.648494174572	1148.059190598445	505.971463703274	372.300695754106	1131.930201321627	431.893171631424	357.553640874587	1065.180645466666	304.811062924972	301.650494201112	1145.066071914720	203.338153771651	361.237129543721	859.479886610015	385.792531737207	598.757253995162	765.721367247617	301.602403825342	661.087685655509	785.959548826450	198.959451501491	600.285264071226	624.912859266308	49.149437801158	569.781091248022	796.378849691218	96.748781438643	611.472325250782	704.441701391115	39.632217028584	647.668742869111	913.142659453341	39.731047196087	647.392523337009	1050.448859948557	36.402977017145	395.039659549335	1125.674082407516	36.465013696670	315.506482449125	1203.548140916460	102.231855042896	342.633291647323	1334.731079239830	57.869765839533	317.355069795071	789.464954902608	1102.510675651124	219.181797066171	706.150045999667	857.084807783887	238.668107910688	1143.643614154378	1127.000609821691	754.070145449586	1354.427172162773	1207.495054466588	647.054621269705	
128	7.902357142857	778.985557710343	994.371142345199	498.935874960469	965.229406406752	1406.484391485206	297.777776541066	1074.329335773793	1338.257323396369	456.316852913709	1000.557674899634	1426.381827254780	628.101109836432	975.353552091587	1471.439676076400	450.074983250732	1000.700612189945	924.427633858108	621.318743391498	992.453691249721	931.101783380768	346.636729005808	989.979960083218	708.597331622006	601.193250602113	876.211672765111	622.331941367101	659.741729423655	935.806885875345	550.064050097087	584.672193163327	909.359530074421	462.122933552369	589.211934135750	1068.252796914510	756.062878522704	386.425075291215	1024.839662028015	630.106209311106	303.719174436610	1125.658926610958	574.271316745855	372.373518836260	1148.022667864658	504.654269032500	371.582986173413	1131.585470923044	430.271463106147	357.056364501491	1063.772715445668	304.089308645530	300.284465679071	1140.762367602166	201.479105742612	361.344652157742	859.666623632230	384.065321165496	597.282422731459	763.925031055146	302.342119035742	660.025656001641	781.597065750042	199.053983848775	599.744854077540	617.404669820001	52.094477726416	570.042790156479	789.586495219930	97.140356394944	611.598104339599	696.894413629768	41.153664459922	647.762166314103	905.427210469437	39.215008654127	647.511717700466	1042.135936340334	36.815908136330	395.379345402114	1117.312154801439	35.590979098532	315.645369666548	1196.775834114674	99.572030687072	343.074419517967	1327.309900729648	52.288344067243	317.463264498706	792.434527556453	1100.410491659572	216.742764996590	708.155557141780	855.129517904001	236.308378237092	1145.177471560116	1128.361583498875	751.868200620860	1350.473913384448	1218.459756306049	643.071737856109	
